<svg width="24" height="25" viewBox="0 0 24 25" fill="none" xmlns="http://www.w3.org/2000/svg">
<g opacity="0.7">
<path d="M15 2.10938C14.9531 2.4375 14.8125 2.90625 14.625 3.14062L10.7344 7.5H13.5C13.875 7.5 14.25 7.875 14.25 8.25V9C14.25 9.42188 13.875 9.75 13.5 9.75H8.25C7.82812 9.75 7.5 9.42188 7.5 9V8.39062C7.5 8.10938 7.64062 7.64062 7.82812 7.40625L11.7188 3H9C8.57812 3 8.25 2.67188 8.25 2.25V1.5C8.25 1.125 8.57812 0.75 9 0.75H14.25C14.625 0.75 15 1.125 15 1.5V2.10938ZM10.875 12.75C11.4844 12.75 12 13.2656 12 13.875V15.0938C11.9531 15.4219 11.7656 15.8906 11.5312 16.125L5.8125 21.75H11.25C11.625 21.75 12 22.125 12 22.5V24C12 24.4219 11.625 24.75 11.25 24.75H2.625C1.96875 24.75 1.5 24.2812 1.5 23.625V22.4531C1.5 22.125 1.6875 21.6562 1.92188 21.4219L7.64062 15.75H3C2.57812 15.75 2.25 15.4219 2.25 15V13.5C2.25 13.125 2.57812 12.75 3 12.75H10.875ZM21.75 11.25C22.125 11.25 22.5 11.625 22.5 12V12.6094C22.4531 12.9375 22.3125 13.4062 22.125 13.6406L18.2344 18H21C21.375 18 21.75 18.375 21.75 18.75V19.5C21.75 19.9219 21.375 20.25 21 20.25H15.75C15.3281 20.25 15 19.9219 15 19.5V18.8906C15 18.6094 15.1406 18.1406 15.3281 17.9062L19.2188 13.5H16.5C16.0781 13.5 15.75 13.1719 15.75 12.75V12C15.75 11.625 16.0781 11.25 16.5 11.25H21.75Z" fill="white"/>
</g>
</svg>
